<?xml version="1.0" encoding="utf-8"?>
<!DOCTYPE svg PUBLIC "-//W3C//DTD SVG 1.1//EN" "http://www.w3.org/Graphics/SVG/1.1/DTD/svg11.dtd">
<svg version="1.1" id="Layer_1" xmlns="http://www.w3.org/2000/svg" xmlns:xlink="http://www.w3.org/1999/xlink" x="0px" y="0px"
	 width="191.917px" height="55.518px" viewBox="0 0 191.917 55.518" enable-background="new 0 0 191.917 55.518"
	 xml:space="preserve">
<polygon fill="#BA8748" points="34.229,19.686 24.388,9.844 22.037,12.194 9.842,0 0,9.842 22.028,31.869 22.037,31.859 
	22.044,31.869 "/>
<polygon fill="#231F20" points="68.459,9.842 58.618,0 46.422,12.194 34.227,0 24.386,9.842 46.413,31.869 46.422,31.859 
	46.432,31.869 "/>
<path fill="#BA8748" d="M68.471,9.842c0,0,2.252,5.9,2.259,7.636c0.008,2.098-0.936,3.243-2.196,3.243
	c-1.258,0-2.574-1.215-2.322-2.971c0.258-1.816,1.081-2.653,1.354-5.003c0.268-2.269,0.154-2.156,0.154-2.156L68.471,9.842z"/>
<g>
	<path fill="#BA8748" d="M13.9,55.393h-1.939L8.972,45.102l-2.97,10.291H4.062L0.227,40.707h2.351l2.558,10.5l2.948-10.5h1.795
		l2.949,10.5l2.557-10.5h2.352L13.9,55.393z"/>
	<path fill="#BA8748" d="M18.56,55.393v-2.516h2.517v2.516H18.56z"/>
	<path fill="#BA8748" d="M24.603,55.393V40.707h9.385v2.002h-7.159v4.289h6.105v1.98h-6.105v4.413h7.159v2.001H24.603z"/>
	<path fill="#BA8748" d="M36.729,55.393v-2.516h2.517v2.516H36.729z"/>
	<path fill="#BA8748" d="M47.722,55.393V40.707h2.226v12.685h7.075v2.001H47.722z"/>
	<path fill="#BA8748" d="M67.581,53.949c-1.011,1.012-2.309,1.568-3.877,1.568c-1.566,0-2.846-0.557-3.856-1.568
		c-1.443-1.443-1.423-3.073-1.423-5.898c0-2.826-0.021-4.455,1.423-5.898c1.01-1.011,2.29-1.566,3.856-1.566
		c1.568,0,2.866,0.556,3.877,1.566c1.444,1.443,1.403,3.072,1.403,5.898C68.984,50.876,69.025,52.506,67.581,53.949z M65.89,43.492
		c-0.515-0.557-1.32-0.907-2.186-0.907s-1.67,0.351-2.186,0.907c-0.722,0.784-0.867,1.609-0.867,4.559s0.145,3.773,0.867,4.557
		c0.515,0.559,1.32,0.91,2.186,0.91s1.671-0.352,2.186-0.91c0.723-0.783,0.866-1.607,0.866-4.557S66.612,44.276,65.89,43.492z"/>
	<path fill="#BA8748" d="M76.862,42.709v12.684h-2.228V42.709h-4.043v-2.002h10.313v2.002H76.862z"/>
	<path fill="#BA8748" d="M88.41,42.709v12.684h-2.226V42.709h-4.043v-2.002h10.311v2.002H88.41z"/>
	<path fill="#BA8748" d="M104.682,55.518c-1.526,0-2.847-0.557-3.857-1.568c-1.442-1.443-1.422-3.073-1.422-5.898
		c0-2.826-0.021-4.455,1.422-5.898c1.011-1.011,2.331-1.566,3.857-1.566c2.702,0,4.724,1.587,5.237,4.516h-2.267
		c-0.353-1.486-1.342-2.517-2.971-2.517c-0.866,0-1.649,0.33-2.165,0.888c-0.722,0.783-0.887,1.629-0.887,4.578
		s0.165,3.795,0.887,4.578c0.516,0.557,1.299,0.889,2.165,0.889c1.629,0,2.64-1.032,2.991-2.518h2.246
		C109.425,53.929,107.342,55.518,104.682,55.518z"/>
	<path fill="#BA8748" d="M121.51,53.949c-1.011,1.012-2.31,1.568-3.876,1.568c-1.568,0-2.847-0.557-3.855-1.568
		c-1.445-1.443-1.424-3.073-1.424-5.898c0-2.826-0.021-4.455,1.424-5.898c1.009-1.011,2.287-1.566,3.855-1.566
		c1.566,0,2.865,0.556,3.876,1.566c1.444,1.443,1.403,3.072,1.403,5.898C122.913,50.876,122.954,52.506,121.51,53.949z
		 M119.819,43.492c-0.516-0.557-1.32-0.907-2.186-0.907c-0.867,0-1.672,0.351-2.188,0.907c-0.721,0.784-0.865,1.609-0.865,4.559
		s0.145,3.773,0.865,4.557c0.516,0.559,1.32,0.91,2.188,0.91c0.865,0,1.67-0.352,2.186-0.91c0.722-0.783,0.865-1.607,0.865-4.557
		S120.541,44.276,119.819,43.492z"/>
	<path fill="#BA8748" d="M136.937,55.393v-9.816l-3.383,7.156h-1.649l-3.465-7.156v9.816h-2.228V40.707h2.228l4.29,9.139
		l4.207-9.139h2.228v14.686H136.937z"/>
	<path fill="#BA8748" d="M148.546,49.618h-3.34v5.774h-2.229V40.707h5.568c2.868,0,4.702,1.898,4.702,4.456
		S151.414,49.618,148.546,49.618z M148.423,42.709h-3.217v4.888h3.217c1.547,0,2.6-0.886,2.6-2.434S149.97,42.709,148.423,42.709z"
		/>
	<path fill="#BA8748" d="M163.374,55.393l-1.009-2.949h-5.798l-1.01,2.949h-2.371l5.383-14.686h1.794l5.383,14.686H163.374z
		 M159.519,44.03l-2.289,6.517h4.516L159.519,44.03z"/>
	<path fill="#BA8748" d="M176.843,55.393l-6.786-10.333v10.333h-2.228V40.707h2.042l6.785,10.314V40.707h2.228v14.686H176.843z"/>
	<path fill="#BA8748" d="M187.524,49.35v6.043h-2.229V49.35l-4.392-8.643h2.433l3.073,6.457l3.073-6.457h2.434L187.524,49.35z"/>
</g>
</svg>