<?xml version="1.0" encoding="utf-8"?>
<!-- Generator: Adobe Illustrator 15.1.0, SVG Export Plug-In . SVG Version: 6.00 Build 0)  -->
<!DOCTYPE svg PUBLIC "-//W3C//DTD SVG 1.1//EN" "http://www.w3.org/Graphics/SVG/1.1/DTD/svg11.dtd">
<svg version="1.1" id="Layer_1" xmlns="http://www.w3.org/2000/svg" xmlns:xlink="http://www.w3.org/1999/xlink" x="0px" y="0px"
	 width="282.918px" height="127.477px" viewBox="0 0 282.918 127.477" enable-background="new 0 0 282.918 127.477"
	 xml:space="preserve">
<polygon fill="#BA8748" points="136.914,78.742 97.551,39.375 88.148,48.777 39.367,0 0,39.367 88.111,127.477 88.148,127.438 
	88.178,127.477 "/>
<polygon fill="#231F20" points="273.838,39.367 234.471,0 185.689,48.777 136.908,0 97.543,39.367 185.65,127.477 185.689,127.438 
	185.727,127.477 "/>
<path fill="#BA8748" d="M273.883,39.367c0,0,9.008,23.602,9.035,30.543c0.031,8.391-3.742,12.973-8.783,12.973
	c-5.031,0-10.295-4.859-9.289-11.883c1.031-7.266,4.322-10.613,5.416-20.012c1.072-9.074,0.617-8.625,0.617-8.625L273.883,39.367z"
	/>
</svg>
